<svg xmlns="http://www.w3.org/2000/svg" height="24" width="200" viewBox="0 0 1000 120" shape-rendering="geometricPrecision">
  <g transform="translate(10,10)">
    <line x1="0" y1="0" x2="0" y2="100" style="stroke:#4584b6; stroke-width:15;" stroke-linecap="round"/>
    <line x1="0" y1="0" x2="70" y2="0" style="stroke:#4584b6; stroke-width:15;" stroke-linecap="round"/>
    <line x1="70" y1="0" x2="70" y2="50" style="stroke:#4584b6; stroke-width:15;" stroke-linecap="round"/>
    <line x1="0" y1="50" x2="70" y2="50" style="stroke:#4584b6; stroke-width:15;" stroke-linecap="round"/>
  </g>

  <g transform="translate(110,10)">
    <line x1="35" y1="50" x2="35" y2="100" style="stroke:#ffde57; stroke-width:15;" stroke-linecap="round"/>
    <line x1="0" y1="50" x2="0" y2="0" style="stroke:#ffde57; stroke-width:15;" stroke-linecap="round"/>
    <line x1="70" y1="0" x2="70" y2="50" style="stroke:#ffde57; stroke-width:15;" stroke-linecap="round"/>
    <line x1="0" y1="50" x2="70" y2="50" style="stroke:#ffde57; stroke-width:15;" stroke-linecap="round"/>
  </g>

   <g transform="translate(210,10)">
    <line x1="0" y1="0" x2="0" y2="100" style="stroke:#4584b6; stroke-width:15;" stroke-linecap="round"/>
    <line x1="0" y1="0" x2="70" y2="0" style="stroke:#4584b6; stroke-width:15;" stroke-linecap="round"/>
    <line x1="70" y1="0" x2="70" y2="50" style="stroke:#4584b6; stroke-width:15;" stroke-linecap="round"/>
    <line x1="0" y1="50" x2="70" y2="50" style="stroke:#4584b6; stroke-width:15;" stroke-linecap="round"/>
  </g>

   <g transform="translate(310,10)">
    <line x1="0" y1="0" x2="0" y2="100" style="stroke:#4584b6; stroke-width:15;" stroke-linecap="round"/>
    <line x1="0" y1="0" x2="70" y2="0" style="stroke:#4584b6; stroke-width:15;" stroke-linecap="round"/>
    <line x1="70" y1="0" x2="70" y2="50" style="stroke:#4584b6; stroke-width:15;" stroke-linecap="round"/>
    <line x1="0" y1="50" x2="70" y2="50" style="stroke:#4584b6; stroke-width:15;" stroke-linecap="round"/>
    <line x1="40" y1="50" x2="40" y2="100" style="stroke:#4584b6; stroke-width:15;" stroke-linecap="round"/>
  </g>

  <g transform="translate(410,10)">
    <line x1="0" y1="0" x2="0" y2="100" style="stroke:#4584b6; stroke-width:15;" stroke-linecap="round"/>
    <line x1="0" y1="0" x2="70" y2="0" style="stroke:#4584b6; stroke-width:15;" stroke-linecap="round"/>
    <line x1="0" y1="50" x2="70" y2="50" style="stroke:#4584b6; stroke-width:15;" stroke-linecap="round"/>
    <line x1="0" y1="100" x2="70" y2="100" style="stroke:#4584b6; stroke-width:15;" stroke-linecap="round"/>
  </g>

  <g transform="translate(510,10)">
    <line x1="0" y1="0" x2="0" y2="50" style="stroke:#4584b6; stroke-width:15;" stroke-linecap="round"/>
    <line x1="70" y1="50" x2="70" y2="100" style="stroke:#4584b6; stroke-width:15;" stroke-linecap="round"/>
    <line x1="0" y1="0" x2="70" y2="0" style="stroke:#4584b6; stroke-width:15;" stroke-linecap="round"/>
    <line x1="0" y1="50" x2="70" y2="50" style="stroke:#4584b6; stroke-width:15;" stroke-linecap="round"/>
    <line x1="0" y1="100" x2="70" y2="100" style="stroke:#4584b6; stroke-width:15;" stroke-linecap="round"/>
  </g>

  <g transform="translate(610,10)">
    <line x1="0" y1="0" x2="0" y2="100" style="stroke:#4584b6; stroke-width:15;" stroke-linecap="round"/>
    <line x1="0" y1="0" x2="70" y2="0" style="stroke:#4584b6; stroke-width:15;" stroke-linecap="round"/>
    <line x1="0" y1="50" x2="70" y2="50" style="stroke:#4584b6; stroke-width:15;" stroke-linecap="round"/>
    <line x1="0" y1="100" x2="70" y2="100" style="stroke:#4584b6; stroke-width:15;" stroke-linecap="round"/>
  </g>

   <g transform="translate(710,10)">
    <line x1="0" y1="0" x2="0" y2="100" style="stroke:#4584b6; stroke-width:15;" stroke-linecap="round"/>
    <line x1="70" y1="0" x2="70" y2="100" style="stroke:#4584b6; stroke-width:15;" stroke-linecap="round"/>
    <line x1="0" y1="0" x2="70" y2="0" style="stroke:#4584b6; stroke-width:15;" stroke-linecap="round"/>
  </g>

  <g transform="translate(810,10)">
    <line x1="0" y1="0" x2="0" y2="100" style="stroke:#4584b6; stroke-width:15;" stroke-linecap="round"/>
    <line x1="0" y1="0" x2="70" y2="0" style="stroke:#4584b6; stroke-width:15;" stroke-linecap="round"/>
    <line x1="0" y1="100" x2="70" y2="100" style="stroke:#4584b6; stroke-width:15;" stroke-linecap="round"/>
  </g>

  <g transform="translate(910,10)">
    <line x1="0" y1="0" x2="0" y2="100" style="stroke:#4584b6; stroke-width:15;" stroke-linecap="round"/>
    <line x1="0" y1="0" x2="70" y2="0" style="stroke:#4584b6; stroke-width:15;" stroke-linecap="round"/>
    <line x1="0" y1="50" x2="70" y2="50" style="stroke:#4584b6; stroke-width:15;" stroke-linecap="round"/>
    <line x1="0" y1="100" x2="70" y2="100" style="stroke:#4584b6; stroke-width:15;" stroke-linecap="round"/>
  </g>
</svg>
